<?xml version="1.0" encoding="UTF-8"?>
<svg id="Capa_2" data-name="Capa 2" xmlns="http://www.w3.org/2000/svg" viewBox="0 0 676.98 617.59">
  <g id="Capa_1-2" data-name="Capa 1">
    <path d="M466.14,490.53l-138.27,127.06,13.02-84.04,16.81-109.68-190.72,79.9-56.79,23.84,35.87-88.49,28.2-70.45L0,436.56l19.96-70.85L88.37,119.82l184.58-56.99L474.86,0l-42.02,136.3,178.29-74.97-22,53.62-56.44,135.68,91.96-26.25-10.63,20.46-37.44,66.95,100.39-16.51-39.01,36.82-171.83,158.43ZM215.07,268.79c7.94-15.79,14.43-31.3,21.42-47.36l115.33-49.74c12.68-5.47,21.5-18.52,27.49-30.22l23.75-46.39c7.12-13.9,13.64-27.39,21.77-40.68l-30.02,89.17c-1.82,5.41-5.57,9.45-7.15,15.61,7.11-4.4,15.13-9.96,17.94-18.46l29.72-89.78c3.08-9.31,10.5-16.27,14.62-25.37l-198.84,91.16-60.34,27.94-42.58,19.46-102.53,229.06,81.54-33.94,51.75-21.47c-7.86.29-14.08,3.55-21.34,5.68l-75.45,22.1,34.78-18.49c17.28-9.19,34.02-17.37,51.03-27.37,20.31-11.95,36.52-29.85,47.12-50.92ZM95.62,182.81l16.7-41.46,128.44-50.74-138.04,41.32-18.11,64.52c-3.83,13.66-8.3,26.09-10.93,40.28l21.95-53.92ZM502.24,351.83c14.3-23.26,29.98-43.52,46.52-64.16,3.47-4.33,6.24-8.21,10.33-12.31l-21.57,42.02-7.69,13.76c5.98-3.6,12.71-7.33,17.11-12.09l22.93-42.35,15.12-20.78-126.57,45.78c29.1-58.63,57.42-114.99,88.76-171.65-5.21,20.09-13.5,37.44-20.98,56.05l-33.94,84.46c5.65-6.91,10.31-14.17,14.36-21.95l15-28.89c8.24-15.86,13.21-32.6,20.06-49.13l19.42-46.79c4.31-10.38,12.74-18.27,17.72-28.11l-27.31,13.14-276.25,127.47-120.88,248.09,130.61-55.74-90.65,25.59c12.9-6.77,25.58-12.29,39.04-18.14l173.49-75.44-34.06,168.05,50.43-53.64c23.76-26.3,47.75-51.11,72.8-76.08,10.63-10.42,19.86-21.24,31.83-30.5-21.31,30.17-45.13,55.9-68.27,84.46l59.4-52.93,33.88-30.33,50.23-42.36-100.87,24.5Z"/>
  </g>
</svg>